<?xml version="1.0" encoding="utf-8"?>
<!-- Generator: Adobe Illustrator 25.2.0, SVG Export Plug-In . SVG Version: 6.00 Build 0)  -->
<svg version="1.1" id="Layer_1" xmlns="http://www.w3.org/2000/svg" xmlns:xlink="http://www.w3.org/1999/xlink" x="0px" y="0px"
	 viewBox="0 0 408.89 400.65" style="enable-background:new 0 0 408.89 400.65;" xml:space="preserve">
<style type="text/css">
	.st0{display:none;}
	.st1{display:inline;fill:#86A874;}
	.st2{display:inline;fill:none;stroke:#86A874;stroke-width:5;stroke-linecap:round;stroke-linejoin:round;stroke-miterlimit:10;}
	.st3{fill:none;stroke:#86A874;stroke-width:6.4194;stroke-linecap:round;stroke-linejoin:round;stroke-miterlimit:10;}
	.st4{fill:none;stroke:#86A874;stroke-width:7.2218;stroke-linecap:round;stroke-linejoin:round;stroke-miterlimit:10;}
	.st5{fill:none;stroke:#86A874;stroke-width:4.0121;stroke-linecap:round;stroke-linejoin:round;stroke-miterlimit:10;}
</style>
<g class="st0">
	<path class="st1" d="M145.81,173.62c-29.31-2.81-102.18-35.26-92.32-60.4s73.56,3.49,107.93,20.6s70.5,14.37,73.08,26.26
		c2.58,11.89-3.25,21.98-3.25,21.98s-6.94,22.47-19.06,19.48S170.27,175.97,145.81,173.62z"/>
	<polygon class="st2" points="220.12,165.32 259.09,180.61 249.23,205.74 205.24,188.48 	"/>
	<path class="st2" d="M264.51,168.16l91.79,37.09c0,0-20.85,56.21-32.14,54.2c-11.29-2.02-68.18-21.65-74.09-31.22
		S259.09,180.61,264.51,168.16z"/>
	<path class="st2" d="M261.02,252.67c0,0-15.36,14.52-6.99,17.8C262.42,273.76,261.02,252.67,261.02,252.67z"/>
	<path class="st2" d="M276.2,279.17c0,0-15.36,14.52-6.99,17.8C277.59,300.26,276.2,279.17,276.2,279.17z"/>
	<path class="st2" d="M305.43,270.1c0,0-15.36,14.52-6.99,17.8C306.83,291.19,305.43,270.1,305.43,270.1z"/>
	<path class="st2" d="M259.62,222.38c0,0,34.03,21.07,65.98,25.89"/>
</g>
<g>
	<path class="st3" d="M144.79,249.63c0,0-59.58-135.41-52.81-153.01c4.19-10.89,84.15-16.6,144.11-14.24
		c17.8,0.7,15.61-19.71,46.06-13.75c41.53,8.12,36.81,8.12,32.65,27.98c-3.61,17.23-48.74,153.01-48.74,153.01H144.79z"/>
	<path class="st4" d="M103.83,262.99"/>
	<path class="st3" d="M136.37,249.8c0,0,0.68,13.37,5.42,13.37c4.74,0,125.25,0,125.25,0s6.09-4.06,5.42-13.37H136.37z"/>
	<path class="st5" d="M204.44,318.39c0,0-8.37,14.72,0,14.72C212.81,333.11,204.44,318.39,204.44,318.39z"/>
	<path class="st5" d="M230.11,291.99c0,0-8.37,14.72,0,14.72C238.48,306.71,230.11,291.99,230.11,291.99z"/>
	<path class="st5" d="M173.25,291.99c0,0-8.37,14.72,0,14.72C181.61,306.71,173.25,291.99,173.25,291.99z"/>
</g>
</svg>
