<?xml version="1.0" encoding="utf-8"?>
<!-- Generator: Adobe Illustrator 25.2.0, SVG Export Plug-In . SVG Version: 6.00 Build 0)  -->
<svg version="1.1" id="Layer_1" xmlns="http://www.w3.org/2000/svg" xmlns:xlink="http://www.w3.org/1999/xlink" x="0px" y="0px"
	 viewBox="0 0 408.89 400.65" style="enable-background:new 0 0 408.89 400.65;" xml:space="preserve">
<style type="text/css">
	.st0{fill:#86A874;}
	.st1{fill:none;stroke:#86A874;stroke-width:5;stroke-linecap:round;stroke-linejoin:round;stroke-miterlimit:10;}
</style>
<g>
	<path class="st0" d="M145.81,173.62c-29.31-2.81-102.18-35.26-92.32-60.4s73.56,3.49,107.93,20.6s70.5,14.37,73.08,26.26
		c2.58,11.89-3.25,21.98-3.25,21.98s-6.94,22.47-19.06,19.48S170.27,175.97,145.81,173.62z"/>
	<polygon class="st1" points="220.12,165.32 259.09,180.61 249.23,205.74 205.24,188.48 	"/>
	<path class="st1" d="M264.51,168.16l91.79,37.09c0,0-20.85,56.21-32.14,54.2c-11.29-2.02-68.18-21.65-74.09-31.22
		S259.09,180.61,264.51,168.16z"/>
	<path class="st1" d="M261.02,252.67c0,0-15.36,14.52-6.99,17.8C262.42,273.76,261.02,252.67,261.02,252.67z"/>
	<path class="st1" d="M276.2,279.17c0,0-15.36,14.52-6.99,17.8C277.59,300.26,276.2,279.17,276.2,279.17z"/>
	<path class="st1" d="M305.43,270.1c0,0-15.36,14.52-6.99,17.8C306.83,291.19,305.43,270.1,305.43,270.1z"/>
	<path class="st1" d="M259.62,222.38c0,0,34.03,21.07,65.98,25.89"/>
</g>
</svg>
